<?xml version="1.0" encoding="UTF-8"?>
<!-- Generator: Adobe Illustrator 16.0.4, SVG Export Plug-In . SVG Version: 6.00 Build 0)  -->
<!DOCTYPE svg PUBLIC "-//W3C//DTD SVG 1.1//EN" "http://www.w3.org/Graphics/SVG/1.1/DTD/svg11.dtd">
<svg version="1.1" id="Layer_1" xmlns="http://www.w3.org/2000/svg" xmlns:xlink="http://www.w3.org/1999/xlink" x="0px" y="0px" width="90.517px" height="100px" viewBox="311.787 344.453 90.517 100" enable-background="new 311.787 344.453 90.517 100" xml:space="preserve">
<g>
	<path fill="#88DBDF" d="M380.869,396.745c-11.524,0-16.373,7.996-16.475,8.168c-0.003,0.003-0.009,0.011-0.009,0.011v-8.181v-4.706   v-9.253v-0.002c0.003,0.002,0.006,0.005,0.006,0.005c1.218,1.577,2.627,2.995,4.192,4.221c0.005,0.007,0.01,0.011,0.018,0.016   c0.514,0.402,1.046,0.784,1.594,1.143c0.05,0.033,0.102,0.065,0.151,0.097c0.287,0.184,0.574,0.362,0.866,0.534   c0.109,0.063,0.219,0.128,0.334,0.191c0.208,0.12,0.425,0.236,0.642,0.349c0.159,0.085,0.318,0.167,0.479,0.248   c0.136,0.065,0.269,0.133,0.404,0.196c0.243,0.115,0.488,0.226,0.738,0.333c0.115,0.052,0.232,0.099,0.35,0.146   c0.237,0.099,0.475,0.194,0.718,0.283c0.112,0.042,0.222,0.081,0.331,0.121c0.245,0.087,0.49,0.171,0.735,0.249   c0.097,0.031,0.193,0.062,0.287,0.093c0.292,0.088,0.584,0.171,0.877,0.247c0.104,0.03,0.208,0.056,0.312,0.082   c0.297,0.074,0.595,0.143,0.895,0.206c0.098,0.021,0.196,0.038,0.298,0.058c0.245,0.048,0.493,0.091,0.738,0.131   c0.13,0.021,0.256,0.043,0.381,0.062c0.263,0.036,0.526,0.07,0.79,0.1c0.146,0.015,0.29,0.033,0.436,0.044   c0.267,0.026,0.537,0.044,0.804,0.063c0.183,0.01,0.365,0.016,0.548,0.022c0.128,0.006,0.256,0.009,0.386,0.011   c0.156,0.003,0.309,0.007,0.465,0.007c6.536,0,12.452-2.649,16.746-6.921l-3.325-3.324c-2.58,2.563-5.894,4.395-9.589,5.148   c-0.186,0.037-0.373,0.066-0.559,0.099c-0.117,0.021-0.237,0.045-0.356,0.064c-0.95,0.146-1.926,0.225-2.917,0.225   c-9.508,0-17.362-6.985-18.773-16.097v-0.114v-5.608v-0.126c1.411-9.114,9.266-16.096,18.773-16.096   c5.262,0,10.024,2.138,13.471,5.59l3.328-3.327c-3.618-3.628-8.408-6.084-13.753-6.771c-0.988-0.126-1.992-0.198-3.015-0.198   c-5.322,0-10.236,1.753-14.196,4.711c-0.005,0.004-0.01,0.008-0.013,0.011c-0.582,0.436-1.14,0.896-1.677,1.381   c-0.039,0.037-0.078,0.072-0.12,0.108c-0.24,0.221-0.478,0.448-0.712,0.68c-0.05,0.048-0.097,0.096-0.144,0.146   c-0.235,0.233-0.462,0.471-0.684,0.715c-0.026,0.03-0.053,0.061-0.078,0.09c-0.217,0.237-0.426,0.48-0.629,0.725   c-0.028,0.034-0.061,0.068-0.086,0.102c-0.156,0.192-0.311,0.389-0.459,0.585v-0.009c-0.006,0.003-0.006,0.004-0.008,0.007v-9.255   v-0.124h-5.084v0.124v9.616v0.002v11.861c0,0.004,0,0.006,0,0.009v4.636c0,0.003,0,0.006,0,0.011v11.671v0.001v9.651v4.706v9.74   v11.863c0,0.006,0,0.008,0,0.011v4.635c0,0.003,0,0.008,0,0.011v11.673v9.642v0.136h4.961v-0.136v-26.016   c0-0.325,0.037-0.821,0.131-1.432c0.662-4.466,4.145-15.296,16.35-15.296c13.878,0,16.852,13.88,16.852,18.215v24.528v0.135h4.708   v-0.135v-23.409C402.303,406.655,392.513,396.745,380.869,396.745z"/>
	<path d="M354.406,344.453v9.711c-0.524-0.722-1.08-1.433-1.698-2.115c-4.101-4.514-9.164-7.001-15.177-7.472   c-0.701-0.056-1.412-0.091-2.14-0.091c-0.728,0-1.44,0.035-2.142,0.091c-6.042,0.472-11.115,2.974-15.219,7.511   c-4.147,4.585-6.225,9.993-6.242,16.225c0,0.023-0.001,0.047-0.001,0.068c0,0.022,0.001,0.042,0.001,0.064   c0.017,6.288,2.216,11.786,6.6,16.495c4.398,4.724,10.062,7.086,17.003,7.086c6.91,0,12.564-2.362,16.964-7.086   c0.757-0.814,1.424-1.662,2.049-2.524v9.622v4.706v9.709c-0.523-0.72-1.078-1.43-1.697-2.108   c-4.578-5.045-10.35-7.564-17.315-7.564c-6.995,0-12.779,2.535-17.361,7.602c-4.147,4.583-6.225,9.99-6.242,16.225   c0,0.021-0.001,0.042-0.001,0.068c0,0.021,0.001,0.041,0.001,0.062c0.017,6.286,2.216,11.79,6.6,16.496   c4.397,4.722,10.062,7.085,17.003,7.085c6.91,0,12.562-2.363,16.966-7.085c0.755-0.814,1.423-1.667,2.047-2.527v9.747h5.027   v-99.999H354.406z M335.551,387.42c-10.515,0-19.037-8.522-19.037-19.037c0-10.514,8.522-19.034,19.037-19.034   c9.676,0,17.644,7.223,18.854,16.569v4.933C353.195,380.197,345.227,387.42,335.551,387.42z M335.554,439.709   c-10.517,0-19.039-8.521-19.039-19.036c0-10.516,8.522-19.034,19.039-19.034c9.676,0,17.641,7.22,18.852,16.569v4.933   C353.195,432.487,345.23,439.709,335.554,439.709z"/>
</g>
</svg>